<svg width="308" height="105" viewBox="0 0 308 105" fill="none" xmlns="http://www.w3.org/2000/svg">
<rect width="308" height="105" fill="#1E1E1E"/>
<path d="M26.432 17.656C41.664 17.4 48.576 31.736 48.704 47.992C48.704 62.328 41.536 75.768 26.176 76.28C19.904 76.28 14.528 74.36 9.28 71.16V104.312L0.0640001 100.984L0.192 27.384C0.0640001 27.384 7.36 17.784 26.304 17.528L26.432 17.656ZM24.128 69.624C36.416 68.856 37.952 56.824 37.952 47.352C37.952 38.136 36.416 24.312 24.768 23.8C16.832 23.288 10.432 27 9.152 28.28V64.76C12.224 66.68 18.368 70.008 24.128 69.624ZM105.92 69.88C102.976 71.8 100.032 73.464 96.32 74.616C88.256 76.92 77.76 77.048 71.104 71.416C64.96 66.168 61.248 57.336 61.248 47.864C61.376 33.144 67.392 17.912 83.776 17.912C99.392 17.912 105.152 28.664 105.408 45.944H71.104C70.08 60.536 77.504 70.392 88 70.008C94.4 69.88 99.008 67.704 103.744 65.4L105.92 69.88ZM95.936 40.44L96.064 40.568C96.064 32.376 92.48 23.672 84.16 23.672C75.2 23.672 72 32.376 71.36 40.44H95.936ZM142.476 24.568H142.348C136.204 24.568 131.98 26.872 128.652 29.688V75H119.308V28.408C122.764 24.568 127.372 21.496 132.62 19.704C138.252 17.656 143.628 16.376 151.436 17.784C150.284 20.088 148.748 23.032 147.724 25.336C145.932 24.952 143.756 24.568 142.476 24.568ZM163.362 24.952H156.962V18.936H163.362V3.32L172.706 -0.00800323V18.936H183.202V24.952H172.706V61.432C172.706 68.856 176.674 70.648 183.202 70.904V75.768C170.786 76.92 163.362 71.288 163.362 61.688V24.952Z" fill="#30679A"/>
<path d="M223.307 17.656C238.539 17.4 245.451 31.736 245.579 47.992C245.579 62.328 238.411 75.768 223.051 76.28C216.779 76.28 211.403 74.36 206.155 71.16V104.312L196.939 100.984L197.067 27.384C196.939 27.384 204.235 17.784 223.179 17.528L223.307 17.656ZM221.003 69.624C233.291 68.856 234.827 56.824 234.827 47.352C234.827 38.136 233.291 24.312 221.643 23.8C213.707 23.288 207.307 27 206.027 28.28V64.76C209.099 66.68 215.243 70.008 221.003 69.624ZM270.411 56.824V56.696C270.411 65.272 276.555 69.752 284.875 69.624C289.867 69.496 295.499 66.68 298.571 64.632V18.936H307.915V69.752C307.915 76.28 307.531 86.136 304.843 91.256C300.107 100.216 286.795 103.8 277.323 104.056L275.787 98.168C282.955 97.144 293.195 96.12 297.035 88.824C298.955 85.24 299.083 78.2 299.083 74.104C299.083 72.696 299.211 73.08 299.083 71.672C296.267 72.952 289.995 76.024 278.987 76.024C270.539 76.024 260.939 70.008 260.939 59.64V20.728L270.411 17.528V56.824Z" fill="#D2455E"/>
</svg>
